<?xml version="1.0" encoding="UTF-8" standalone="no"?>
<!-- Created with Inkscape (http://www.inkscape.org/) -->

<svg
   xmlns:dc="http://purl.org/dc/elements/1.1/"
   xmlns:cc="http://creativecommons.org/ns#"
   xmlns:rdf="http://www.w3.org/1999/02/22-rdf-syntax-ns#"
   xmlns:svg="http://www.w3.org/2000/svg"
   xmlns="http://www.w3.org/2000/svg"
   xmlns:sodipodi="http://sodipodi.sourceforge.net/DTD/sodipodi-0.dtd"
   xmlns:inkscape="http://www.inkscape.org/namespaces/inkscape"
   width="116.29565mm"
   height="21.502893mm"
   viewBox="0 0 116.29565 21.502893"
   version="1.1"
   id="svg8"
   inkscape:version="0.92.1 r15371"
   sodipodi:docname="logo.svg">
  <defs
     id="defs2" />
  <sodipodi:namedview
     id="base"
     pagecolor="#ffffff"
     bordercolor="#666666"
     borderopacity="1.0"
     inkscape:pageopacity="0.0"
     inkscape:pageshadow="2"
     inkscape:zoom="0.49497475"
     inkscape:cx="254.24668"
     inkscape:cy="-238.68565"
     inkscape:document-units="mm"
     inkscape:current-layer="layer3"
     showgrid="false"
     inkscape:window-width="1688"
     inkscape:window-height="1326"
     inkscape:window-x="13"
     inkscape:window-y="20"
     inkscape:window-maximized="0" />
  <metadata
     id="metadata5">
    <rdf:RDF>
      <cc:Work
         rdf:about="">
        <dc:format>image/svg+xml</dc:format>
        <dc:type
           rdf:resource="http://purl.org/dc/dcmitype/StillImage" />
        <dc:title></dc:title>
      </cc:Work>
    </rdf:RDF>
  </metadata>
  <g
     inkscape:groupmode="layer"
     id="layer3"
     inkscape:label="Layer 3"
     style="display:inline"
     transform="translate(-51.649836,-70.235131)">
    <path
       style="opacity:1;vector-effect:none;fill:#ffe599;fill-opacity:1;stroke:none;stroke-width:0.26458332px;stroke-linecap:butt;stroke-linejoin:miter;stroke-miterlimit:4;stroke-dasharray:none;stroke-dashoffset:0;stroke-opacity:1"
       d="M 51.649836,70.689527 V 91.269279 H 65.380808 V 88.028636 H 54.990706 v -5.311981 h 8.586033 V 79.275561 H 54.990706 V 74.063804 H 65.31399 v -3.407686 z"
       id="path4500"
       inkscape:connector-curvature="0" />
    <path
       style="opacity:1;vector-effect:none;fill:#ffe599;fill-opacity:1;stroke:none;stroke-width:0.26458332px;stroke-linecap:butt;stroke-linejoin:miter;stroke-miterlimit:4;stroke-dasharray:none;stroke-dashoffset:0;stroke-opacity:1"
       d="M 69.12258,70.656118 V 91.269279 H 80.080632 V 87.828185 H 72.46345 V 70.656118 Z"
       id="path4502"
       inkscape:connector-curvature="0" />
    <path
       style="opacity:1;vector-effect:none;fill:#ffe599;fill-opacity:1;stroke:none;stroke-width:0.26458332px;stroke-linecap:butt;stroke-linejoin:miter;stroke-miterlimit:4;stroke-dasharray:none;stroke-dashoffset:0;stroke-opacity:1"
       d="M 98.22155,70.756343 90.604368,81.54735 v 9.755338 h -3.474503 v -9.788747 l -7.684,-10.791007 h 4.142679 l 5.378799,7.349913 5.278573,-7.450138 z"
       id="path4504"
       inkscape:connector-curvature="0" />
    <path
       style="opacity:1;vector-effect:none;fill:#ffe599;fill-opacity:1;stroke:none;stroke-width:0.26458332px;stroke-linecap:butt;stroke-linejoin:miter;stroke-miterlimit:4;stroke-dasharray:none;stroke-dashoffset:0;stroke-opacity:1"
       d="m 100.15926,85.723438 h 3.30745 c 0.49657,2.331797 3.16175,3.104424 4.88063,2.007991 2.39144,-1.525446 1.13137,-4.599029 -0.87158,-4.947956 -5.78972,-0.571879 -8.478743,-2.770989 -6.87169,-8.780356 1.32573,-4.957394 11.66514,-5.797073 12.3173,2.232252 h -3.34087 c -0.28464,-2.496883 -3.84798,-3.130044 -4.99614,-1.885491 -1.80982,1.961766 -1.61894,5.112992 3.40399,5.056943 5.56854,0.687702 6.31953,7.832525 3.06111,10.80202 -3.427,3.123124 -10.87243,1.381599 -10.8902,-4.485403 z"
       id="path4506"
       inkscape:connector-curvature="0"
       sodipodi:nodetypes="ccscsccscsc" />
    <path
       style="opacity:1;vector-effect:none;fill:#ffe599;fill-opacity:1;stroke:none;stroke-width:0.26458332px;stroke-linecap:butt;stroke-linejoin:miter;stroke-miterlimit:4;stroke-dasharray:none;stroke-dashoffset:0;stroke-opacity:1"
       d="M 145.46144,91.336097 V 70.622709 h 3.50791 l 7.95127,16.236622 7.58377,-16.27003 h 3.4411 v 20.679978 h -3.34087 V 78.74102 l -6.08038,12.595077 h -3.30746 l -6.18061,-12.862346 v 12.828937 z"
       id="path4514"
       inkscape:connector-curvature="0" />
    <path
       style="opacity:1;vector-effect:none;fill:#ffe599;fill-opacity:1;stroke:none;stroke-width:0.26458332px;stroke-linecap:butt;stroke-linejoin:miter;stroke-miterlimit:4;stroke-dasharray:none;stroke-dashoffset:0;stroke-opacity:1"
       d="m 117.12537,70.686754 v 20.599702 h 3.35454 V 70.686754 Z"
       id="path4508"
       inkscape:connector-curvature="0" />
    <path
       style="opacity:1;vector-effect:none;fill:#ffe599;fill-opacity:1;stroke:none;stroke-width:0.26458332px;stroke-linecap:butt;stroke-linejoin:miter;stroke-miterlimit:4;stroke-dasharray:none;stroke-dashoffset:0;stroke-opacity:1"
       d="m 125.25186,70.734001 h 3.59077 v 14.174107 c 0,3.894816 8.50447,4.455168 8.50447,0 V 70.592261 h 3.44903 v 15.449775 c 0,6.826558 -15.54427,7.834388 -15.54427,0 z"
       id="path4510"
       inkscape:connector-curvature="0"
       sodipodi:nodetypes="ccccccccc" />
  </g>
</svg>
